<svg width="24" height="24" viewBox="0 0 24 24" fill="none" xmlns="http://www.w3.org/2000/svg">
<path d="M3.39551 1.9043C2.56926 1.9043 1.90137 2.56633 1.90137 3.39258V20.6074C1.90137 21.4337 2.56926 22.0957 3.39551 22.0957H20.6045C21.4307 22.0957 22.0986 21.4337 22.0986 20.6074V3.39258C22.0986 2.56633 21.4307 1.9043 20.6045 1.9043H3.39551ZM19.8545 4.52344V6.83789C18.9389 6.83789 17.935 6.86719 17.4814 6.86719C16.9872 6.86719 16.7153 7.02778 16.5791 7.21289C16.4147 7.43635 16.3271 7.75639 16.3271 8.14453V8.95898H19.6436V11.3672H16.3271V20.5254H12.9463V11.3672H11.3701V8.95898H12.9463V8.08594C12.9462 7.11309 13.077 6.50262 13.2803 6.02344C13.4908 5.54428 14.208 5.09696 14.7744 4.82812C15.4484 4.50821 15.8429 4.52344 19.8545 4.52344Z" fill="black"/>
</svg>
