<svg width="27" height="31" viewBox="0 0 27 31" fill="none" xmlns="http://www.w3.org/2000/svg">
<path d="M5.46875 8.09375C5.46875 10.2403 6.27539 12.299 7.71121 13.8169C9.14704 15.3348 11.0944 16.1875 13.125 16.1875C15.1556 16.1875 17.103 15.3348 18.5388 13.8169C19.9746 12.299 20.7812 10.2403 20.7812 8.09375C20.7812 5.94715 19.9746 3.88848 18.5388 2.3706C17.103 0.852732 15.1556 0 13.125 0C11.0944 0 9.14704 0.852732 7.71121 2.3706C6.27539 3.88848 5.46875 5.94715 5.46875 8.09375ZM24.0625 30.0625H1.09375C0.803669 30.0625 0.52547 29.9407 0.320352 29.7238C0.115234 29.507 0 29.2129 0 28.9062V25.4375C0 23.9042 0.57617 22.4337 1.60176 21.3495C2.62735 20.2653 4.01835 19.6562 5.46875 19.6562H20.7812C22.2317 19.6562 23.6227 20.2653 24.6482 21.3495C25.6738 22.4337 26.25 23.9042 26.25 25.4375V28.9062C26.25 29.2129 26.1348 29.507 25.9296 29.7238C25.7245 29.9407 25.4463 30.0625 25.1562 30.0625H24.0625Z" fill="white"/>
</svg>
